<?xml version="1.0" encoding="UTF-8"?>
<svg width="160px" height="23px" viewBox="0 0 160 23" version="1.1" xmlns="http://www.w3.org/2000/svg" xmlns:xlink="http://www.w3.org/1999/xlink">
    <title>logo/sauce/color</title>
    <g id="logo/sauce/color" stroke="none" stroke-width="1" fill="none" fill-rule="evenodd">
        <g id="logo/color" transform="translate(0.000000, -0.000000)">
            <path d="M93.4811831,3.91980282 C93.5056901,3.67416901 93.7265352,3.45360563 93.9473803,3.45360563 L103.047944,3.45360563 C103.282592,3.45360563 103.423718,3.66459155 103.400056,3.89952113 L103.118366,5.82459155 C103.094986,6.05923944 102.883437,6.27050704 102.648789,6.27050704 L96.3487887,6.27050704 L95.7563944,10.4958592 L100.983437,10.4958592 C101.213859,10.4958592 101.393296,10.7262817 101.367662,10.9820563 L101.060056,13.1079718 C101.009352,13.389662 100.778366,13.5944507 100.548225,13.5944507 L95.3462535,13.5944507 L94.7425915,17.8198028 L101.055549,17.8198028 C101.290197,17.8198028 101.407662,18.0313521 101.384563,18.266 L101.126254,20.190507 C101.102592,20.4251549 100.891042,20.6367042 100.656394,20.6367042 L91.5420282,20.6367042 C91.2966761,20.6367042 91.1493521,20.4155775 91.1983662,20.1699437 L93.4811831,3.91980282 Z M83.7434366,3.22177465 C85.9563944,3.22177465 87.7023099,4.20515493 88.8580845,5.55783099 C89.0056901,5.75473239 88.9809014,6.04966197 88.7597746,6.24656338 L87.4318873,7.52515493 C87.1614648,7.77078873 86.8417465,7.74628169 86.620338,7.52515493 C85.9811831,6.91050704 84.9237183,6.29529577 83.5710423,6.29529577 C80.620338,6.29529577 78.0628732,9.34459155 78.0628732,12.8612113 C78.0628732,15.4676901 79.4648451,17.7054366 81.8254085,17.7054366 C83.2516056,17.7054366 84.3580845,16.9924789 85.1941408,16.2544507 C85.5135775,15.9843099 85.7845634,16.0333239 85.9811831,16.2792394 L87.2597746,17.8775493 C87.3825915,18.0499437 87.3090704,18.3693803 87.1369577,18.5417746 C85.4152676,20.1890986 83.5462535,20.9271268 81.5792113,20.9271268 C77.3251268,20.9271268 74.5710423,17.5088169 74.5710423,13.2792394 C74.5710423,7.5003662 78.6530141,3.22177465 83.7434366,3.22177465 L83.7434366,3.22177465 Z M59.3969577,3.92064789 C59.4217465,3.67473239 59.667662,3.45360563 59.8890704,3.45360563 L62.3234366,3.45360563 C62.5693521,3.45360563 62.7166761,3.67473239 62.692169,3.92064789 L61.2166761,14.2730423 C61.167662,14.5437465 61.167662,14.814169 61.167662,15.0600845 C61.167662,16.6831831 62.0037183,17.6671268 63.675831,17.6671268 C65.6924507,17.6671268 66.8234366,16.3637465 67.1186479,14.297831 L68.5938592,3.92064789 C68.6183662,3.67473239 68.8397746,3.45360563 69.0856901,3.45360563 L71.520338,3.45360563 C71.7417465,3.45360563 71.9138592,3.67473239 71.8893521,3.92064789 L70.3890704,14.4454366 C69.8724507,18.1834648 67.2662535,20.9127606 63.4299155,20.9127606 C60.1349859,20.9127606 57.8234366,18.650507 57.8234366,15.4290986 C57.8234366,15.1093803 57.8479437,14.7899437 57.8969577,14.4454366 L59.3969577,3.92064789 Z M50.0237183,14.7212113 L48.8696338,9.36909859 L48.8206197,9.36909859 L46.1448451,14.7212113 L50.0237183,14.7212113 Z M39.9178028,19.9972676 L49.1668169,3.44233803 C49.2651268,3.27022535 49.3879437,3.17191549 49.5845634,3.17191549 L49.8062535,3.17191549 C49.9783662,3.17191549 50.1014648,3.29473239 50.1504789,3.44233803 L54.6766761,19.9972676 C54.7749859,20.3167042 54.5538592,20.6367042 54.2093521,20.6367042 L51.8848451,20.6367042 C51.5299155,20.6367042 51.3406197,20.5183944 51.2696338,20.1634648 L50.6783662,17.5381127 L44.7890704,17.5381127 L43.4172394,20.1634648 C43.2992113,20.4000845 43.0389296,20.6367042 42.660338,20.6367042 L40.2127324,20.6367042 C39.868507,20.6367042 39.7454085,20.3167042 39.9178028,19.9972676 L39.9178028,19.9972676 Z M27.820338,18.2710704 L28.779493,16.869662 C29.0009014,16.5251549 29.3448451,16.5989577 29.5417465,16.7713521 C30.1563944,17.2876901 31.0910423,18.0499437 32.5910423,18.0499437 C33.6975211,18.0499437 34.779493,17.1890986 34.779493,15.9598028 C34.779493,14.8775493 34.0417465,14.1643099 32.6648451,13.2544507 C31.0414648,12.1969859 29.1237183,10.7955775 29.1237183,8.33670423 C29.1237183,5.8775493 30.820338,3.22177465 34.6811831,3.22177465 C36.9679437,3.22177465 38.6400563,4.40205634 39.0580845,4.82008451 C39.3532958,5.11501408 39.3778028,5.45952113 39.132169,5.80374648 L38.1730141,7.15614085 C37.9763944,7.45135211 37.6566761,7.47585915 37.3124507,7.20515493 C36.5499155,6.59050704 35.787662,6.12346479 34.5335775,6.12346479 C33.279493,6.12346479 32.4434366,7.08233803 32.4434366,8.04149296 C32.4434366,9.02543662 33.1073803,9.51698592 34.5825915,10.5003662 C36.2056901,11.5826197 38.3699155,12.9350141 38.3699155,15.6398028 C38.3699155,18.5169859 36.1318873,20.9271268 32.4924507,20.9271268 C30.1811831,20.9271268 28.5825915,19.7220563 27.820338,19.0085352 C27.6727324,18.861493 27.5499155,18.6398028 27.820338,18.2710704 L27.820338,18.2710704 Z" id="Fill-1" fill="#484C55"></path>
            <path d="M149.087746,18.8121127 C149.800986,19.5253521 151.227465,20.9270423 153.686056,20.9270423 C157.104366,20.9270423 159.071408,18.8369014 159.071408,16.1073239 C159.071408,13.5743662 157.276479,12.3692958 154.915634,11.0907042 C153.366338,10.2546479 152.431972,9.34478873 152.431972,7.96788732 C152.431972,6.54169014 153.612535,4.86901408 155.726901,4.86901408 C156.907465,4.86901408 157.841831,5.36140845 158.65338,5.92647887 C158.97338,6.14816901 159.219296,6.04957746 159.46493,5.70535211 L159.735634,5.31183099 C160.05507,4.84450704 159.833662,4.5743662 159.710845,4.47577465 C158.997606,3.93464789 157.694507,3.22169014 155.899296,3.22169014 C151.86662,3.22169014 150.563239,6.12366197 150.563239,8.18901408 C150.563239,10.4515493 151.891127,11.5332394 153.858732,12.664507 C155.899296,13.8447887 157.05507,14.7546479 157.05507,16.3039437 C157.05507,18.1974648 155.579577,19.2791549 153.956761,19.2791549 C151.891127,19.2791549 151.054789,18.2216901 150.317324,17.5583099 C150.022113,17.2876056 149.825211,17.3859155 149.530563,17.6811268 L149.137042,18.0988732 C148.817324,18.4188732 148.915634,18.64 149.087746,18.8121127 L149.087746,18.8121127 Z M138.299577,11.0591549 L139.14493,5.14366197 L142.350282,5.14366197 C143.565493,5.14366197 144.561268,6.11098592 144.598451,7.3256338 C144.667465,9.55183099 143.493944,11.0591549 141.655915,11.0591549 L138.299577,11.0591549 Z M137.082676,18.9464789 L137.95,12.7492958 L141.420423,12.7492958 C142.932817,12.7492958 144.072817,13.8898592 144.072817,15.4264789 C144.072817,17.36 142.635352,18.9464789 140.924648,18.9464789 L137.082676,18.9464789 Z M143.927183,11.9222535 C145.350563,11.1859155 146.651972,9.73774648 146.651972,7.35661972 C146.651972,5.22056338 145.13,3.45352113 142.699859,3.45352113 L137.814789,3.45352113 C137.569437,3.45352113 137.372817,3.6743662 137.324085,3.91971831 L135.041268,20.1701408 C135.016479,20.415493 135.163803,20.6366197 135.409155,20.6366197 L140.490282,20.6366197 C143.878169,20.6366197 146.013662,18.3535211 146.013662,15.3343662 C146.013662,13.5422535 144.884648,12.5115493 143.927183,11.9960563 L143.927183,11.9222535 Z M122.462113,15.0028169 L126.720986,6.83380282 L126.870563,6.83380282 L128.837887,15.0028169 L122.462113,15.0028169 Z M117.975915,20.6366197 L119.172817,20.6366197 C119.412535,20.6366197 119.556761,20.4923944 119.628592,20.3726761 L121.669155,16.4112676 L129.159859,16.4112676 L130.119859,20.3726761 C130.144085,20.4923944 130.264085,20.6366197 130.479859,20.6366197 L131.652254,20.6366197 C131.971972,20.6366197 132.19338,20.3166197 132.119859,19.9971831 L127.741268,3.44225352 C127.692254,3.29492958 127.569155,3.17183099 127.396761,3.17183099 L127.175634,3.17183099 C126.978732,3.17183099 126.830845,3.29492958 126.757606,3.44225352 L117.680704,19.9971831 C117.50831,20.3166197 117.631127,20.6366197 117.975915,20.6366197 L117.975915,20.6366197 Z M106.98662,20.1701408 C106.961831,20.415493 107.109437,20.6366197 107.354789,20.6366197 L115.06662,20.6366197 C115.319014,20.6366197 115.520704,20.4092958 115.571408,20.1571831 L115.671972,19.4259155 C115.697324,19.1738028 115.546056,18.9464789 115.319014,18.9464789 L109.054789,18.9464789 L111.184085,3.91830986 C111.208592,3.67380282 111.037324,3.45352113 110.817324,3.45352113 L109.760704,3.45352113 C109.51507,3.45352113 109.318451,3.6743662 109.269718,3.91971831 L106.98662,20.1701408 Z M16.9601408,1.87746479 L13.6311268,7.96056338 L19.7832394,7.96056338 C19.7832394,7.96056338 20.4130986,9.42197183 20.4130986,11.3408451 C20.4130986,16.5473239 16.1770423,20.7833803 10.9705634,20.7833803 C10.5077465,20.7833803 10.0457746,20.7492958 9.59,20.6825352 L10.6443662,19.6174648 C10.7530986,19.6216901 10.861831,19.624507 10.9705634,19.624507 C15.538169,19.624507 19.2553521,15.9084507 19.2553521,11.3408451 C19.2553521,11.3408451 19.2542254,10.1360563 18.9440845,9.08732394 L11.8711268,9.08732394 L14.8984507,3.37746479 L7.45901408,10.7774648 L17.1730986,10.7774648 L6.55788732,21.5456338 C7.9584507,22.1811268 9.51253521,22.5352113 11.1480282,22.5352113 C17.2953521,22.5352113 22.2964789,17.5340845 22.2964789,11.3870423 C22.2964789,7.36816901 20.1584507,3.83943662 16.9601408,1.87746479 L16.9601408,1.87746479 Z M8.66492958,14.7211268 L5.33619718,20.8966197 C2.13788732,18.9349296 -0.00014084507,15.4061972 -0.00014084507,11.3870423 C-0.00014084507,5.24 5.00098592,0.238873239 11.1480282,0.238873239 C12.7838028,0.238873239 14.338169,0.592957746 15.7387324,1.2284507 L5.04126761,11.9042254 L14.7271831,11.9042254 L7.40042254,19.304507 L10.4274648,13.5943662 L3.35394366,13.5943662 C3.02239437,12.4723944 3.04380282,11.3408451 3.04380282,11.3408451 C3.04380282,6.77323944 6.75957746,3.05690141 11.3274648,3.05690141 C11.4252113,3.05690141 11.5209859,3.05943662 11.6184507,3.0628169 L12.6846479,1.99464789 C12.2387324,1.93070423 11.7990141,1.89859155 11.3466197,1.89859155 C6.14014085,1.89859155 1.89,6.1343662 1.89,11.3408451 C1.89,11.3408451 1.8328169,13.0121127 2.51197183,14.7183099 L8.66492958,14.7211268 Z" id="Fill-3" fill="#E12726"></path>
        </g>
    </g>
</svg>
