<?xml version="1.0" encoding="utf-8"?>
<!-- Generator: Adobe Illustrator 24.0.1, SVG Export Plug-In . SVG Version: 6.00 Build 0)  -->
<svg version="1.1" id="Layer_1" xmlns="http://www.w3.org/2000/svg" xmlns:xlink="http://www.w3.org/1999/xlink" x="0px" y="0px"
	 viewBox="0 0 500 500" style="enable-background:new 0 0 500 500;" xml:space="preserve">
<style type="text/css">
	.st0{fill:#D82E27;}
	.st1{fill:#5DC2E7;}
	.st2{fill:#FFFFFF;}
	.st3{opacity:0.6;fill:#2494D1;enable-background:new    ;}
</style>
<title>SauceBot OG - waving-1x</title>
<path class="st0" d="M471.5,224c-1.8,22.2-21.2,38.8-43.4,37c-16.5,36.2-51.4,57-73,66.9v64.9c0,10.5-8.5,19-19,19h-13.7l9.6,48.5
	c0,12.8-16.6,27.6-37.1,27.6s-37.2-14.4-37.2-27.6l9.6-48.5H221l9.6,48.5c0,12.8-16.7,27.6-37.2,27.6s-37.2-14.4-37.2-27.6l9.6-48.5
	H152c-10.5-0.1-19-8.6-18.9-19.1v-55.2c-11.4,9.2-26,25.5-40.8,54.6l0,0c4.2,3.7,7.6,8.1,10,13.1c9.5,20.1,1,44.2-19.1,53.7
	c-0.3,0.1-0.6,0.2-0.8,0.3c-1.9,0.3-3.7-0.9-4.1-2.8l-2.2-12c-0.2-1,0.3-2,1.2-2.5c4-2.3,7.2-5.9,9.1-10.1
	c5-11.3-0.1-24.6-11.4-29.6c-11.3-5-24.6,0.1-29.6,11.4c-1.9,4.3-2.4,9.1-1.4,13.7c0.2,1-0.2,2.1-1,2.7l-10.3,6.5
	c-0.3,0.2-0.5,0.3-0.8,0.4c-1.8,0.6-3.8-0.4-4.4-2.3c-1.6-5.2-2.2-10.6-1.6-16c2.2-22.1,21.8-38.3,43.9-36.2
	c23.1-45.8,46.8-65.8,63.4-74.5v-0.6c0-4.8,1.8-9.3,5-12.8c10.7-11.7,39.1-37.1,87.7-42.4v-7.7c-40.6-3.2-71.1-16.3-88-25.5
	c-9.3-5.1-15.1-14.9-15.1-25.6v-16.8c-5.9,0-10.6-4.9-10.6-10.8v-8.5c0-5.9,4.7-10.7,10.6-10.8v-18.2c0-4.5,1-8.9,3-12.9
	c8.3-16.7,36.3-56.6,116.3-57.3l5.6-8.6H232l15.5-21.9c-1.4-1.7-2.2-3.8-2.2-6c0-5.2,4.2-9.4,9.4-9.3s9.4,4.2,9.3,9.4
	s-4.2,9.4-9.4,9.4h-0.2l-7.7,10.9h14.5l-3.7,5.9l-6.8,10.5C328.4,60.3,355,99,362.7,115.5c1.9,3.9,2.8,8.2,2.8,12.5v18.4
	c5.9,0,10.6,4.9,10.6,10.8v8.5c0,5.9-4.7,10.7-10.6,10.8V195c0.1,10-5,19.2-13.4,24.6c-15,9.3-43.5,22.1-89.7,24.9v7.6
	c48.6,5.3,77.1,30.7,87.7,42.4c1.7,1.9,3,4.1,3.8,6.5c17.5-9.4,40-25.3,51.4-49.2c-4.2-3.6-7.7-8-10.2-12.9
	c-9.9-19.9-1.8-44.1,18.1-54.1c0.3-0.1,0.6-0.2,0.9-0.3c1.9-0.4,3.7,0.8,4.1,2.7l2.5,12c0.2,1-0.3,2-1.2,2.6c-4,2.4-7.1,6-8.9,10.3
	c-4.8,11.4,0.5,24.6,12,29.4c11.4,4.8,24.6-0.5,29.4-12c1.8-4.3,2.2-9.1,1.1-13.7c-0.3-1,0.1-2.1,1-2.7l10.2-6.7
	c0.2-0.2,0.5-0.3,0.8-0.4c1.8-0.6,3.8,0.4,4.4,2.2C471.2,213.2,471.9,218.6,471.5,224z"/>
<path class="st1" d="M244.1,92.1c-65.1,0-92.4,22.6-99.1,34.3c-1.6,2.7-2.4,5.8-2.4,9v45.2c0,7.4,4.6,14.3,12,17.8
	c15.4,7.4,49.7,18.2,89.4,18.2c45.5,0,77.3-10.4,90.8-17.7c6.7-3.6,10.7-10.2,10.7-17.1v-46.7c0-3.1-0.8-6.1-2.2-8.7
	C336.9,114.8,310,92.1,244.1,92.1"/>
<path class="st2" d="M205.9,350.4c-8.1-21.3,2.6-45.2,23.9-53.3c4.6-1.8,9.5-2.7,14.4-2.7c1.9,0,3.9,0.1,5.8,0.4l-4.6,4.7h-1.3
	c-19.9,0.1-35.9,16.3-35.9,36.2c0,3.3,0.5,6.6,1.3,9.8h31.4l-13.1,25l31.7-32.3h-43.2l48.5-48.8c-6.5-3-13.6-4.5-20.8-4.5
	c-27.9,0-50.5,22.8-50.5,50.9c0,17.7,9.2,34.1,24.2,43.4l15.1-28.7L205.9,350.4z"/>
<path class="st2" d="M270.4,292.2l-15.1,28.7h26.9c8.3,21.1-2.1,44.9-23.2,53.1c-6.7,2.6-13.9,3.4-21,2.4l4.6-4.6h1.4
	c19.9-0.1,36-16.2,35.9-36.1c0-3.3-0.5-6.6-1.4-9.8h-31.5l13.1-24.9l-32.2,32.3h43.3L223.2,382c6.5,3,13.6,4.5,20.8,4.5
	c28.2-0.3,50.8-23.4,50.5-51.5C294.3,317.5,285.2,301.4,270.4,292.2"/>
<path class="st3" d="M254.7,92.3c-3.4-0.1-7-0.2-10.6-0.2c-65.1,0-92.4,22.6-99.1,34.3c-1.6,2.7-2.4,5.8-2.4,9v45.2
	c0,6.8,3.8,13,10.1,16.7C152.6,169.9,169.4,126.7,254.7,92.3z"/>
</svg>
