<svg width="169" height="32" viewBox="0 0 169 32" fill="none" xmlns="http://www.w3.org/2000/svg">
<path d="M54.291 11.5125C54.291 12.2851 54.2022 13.2057 53.4589 13.2057C52.8043 13.2057 52.5972 12.4922 52.0942 11.7528C51.3509 10.6548 50.1046 8.69545 47.6415 8.69545C45.1785 8.69545 43.9285 10.3886 43.9285 12.019C43.9285 17.4201 55.1231 14.8693 55.1231 22.2002C55.1231 25.228 52.5676 29.0284 47.0757 29.0284C44.4314 29.0284 41.7909 28.167 40.9588 26.6846C40.6038 26.0598 40.4558 25.3796 40.4263 24.7252C40.3967 24.0709 40.3375 23.5977 40.3375 23.0616C40.3375 22.4664 40.6925 22.2002 41.0808 22.2002C41.8538 22.2002 41.9721 23.0912 43.1001 24.5441C44.0209 25.7308 45.5335 27.3648 47.9411 27.3648C50.9699 27.3648 52.4234 25.3167 52.4234 23.4461C52.4234 17.5089 41.2288 20.3296 41.2288 13.2352C41.2288 10.03 44.0209 7.15015 48.5328 7.15015C50.6112 7.15015 52.6305 7.74535 53.4921 8.69545C54.0876 9.3498 54.2947 10.5661 54.2947 11.5162L54.291 11.5125Z" fill="#6D7344"/>
<path d="M69.2841 26.8865C69.5504 26.8865 69.7908 27.0639 69.7908 27.3597C69.7908 27.9253 68.8699 29.0233 67.5645 29.0233C66.5844 29.0233 65.486 28.4281 65.3085 26.6794C65.3085 26.6203 65.3085 26.5316 65.2494 26.5316C65.1902 26.5316 65.1902 26.5611 65.131 26.6499C64.0622 28.2543 62.2205 29.0233 60.3788 29.0233C57.4978 29.0233 55.7449 27.2414 55.7449 25.1933C55.7449 24.0066 56.3403 22.7607 57.5866 21.9585C59.1325 20.9197 60.9705 20.5943 62.6051 19.8217C63.7923 19.2856 65.1014 18.428 65.1014 16.8235C65.1014 15.4002 64.1214 14.3909 62.5164 14.3909C60.7338 14.3909 59.8129 15.5481 59.0733 16.5869C58.4779 17.4187 58.3891 17.9511 57.7382 17.9511C57.0245 17.9511 56.9061 17.2671 56.9061 16.4982C56.9061 15.7292 57.0541 14.7754 57.4128 14.3318C58.2153 13.293 60.6192 12.8789 62.313 12.8789C66.1148 12.8789 68.0748 15.0157 68.0748 17.9547C68.0748 20.269 67.9861 23.001 67.9861 25.3744C67.9861 26.4133 68.3411 26.8865 68.9365 26.8865H69.2915H69.2841ZM65.0977 20.3282C65.0977 20.269 65.0681 20.2099 65.009 20.2099C64.9498 20.2099 64.9202 20.2394 64.8019 20.3282C63.7627 21.1304 61.8026 21.6332 60.3788 22.5833C59.31 23.2968 58.8958 24.2173 58.8958 25.0454C58.8958 26.2321 59.6983 27.3005 61.27 27.3005C62.4276 27.3005 63.7664 26.6462 64.4764 25.1933C65.0718 23.9474 65.1014 22.6424 65.1014 20.8309V20.3282H65.0977Z" fill="#6D7344"/>
<path d="M85.7635 27.3642C85.7635 27.7192 85.5564 27.9299 84.961 28.0482C83.8034 28.3144 82.9713 28.5842 82.228 28.88C81.9321 28.9983 81.7546 29.0279 81.603 29.0279C81.1888 29.0279 80.9484 28.7913 80.9484 28.2256V26.3846C80.9484 26.3254 80.9188 26.2958 80.8596 26.2958C80.8004 26.2958 80.7709 26.355 80.7117 26.4437C79.7316 27.9558 77.9787 29.0279 75.9003 29.0279C74.4173 29.0279 73.1081 28.4918 72.1872 27.3642C71.3551 26.355 71.0889 24.9613 71.0889 23.1794V18.1922C71.0889 16.9168 71.0889 16.2329 70.793 15.7893C70.3196 15.0462 69.0992 15.2532 69.0992 14.4843C69.0992 14.1885 69.3063 13.9815 69.9017 13.8595C71.0889 13.5933 71.773 13.3863 72.5755 13.0572C72.8714 12.9389 73.0193 12.8798 73.2597 12.8798C73.6443 12.8798 73.9143 13.1164 73.9143 13.6524V23.1202C73.9143 25.1683 74.8648 26.7727 77.0023 26.7727C77.864 26.7727 78.7849 26.477 79.495 25.7635C80.5933 24.6655 80.9484 23.0019 80.9484 18.4621C80.9484 17.0388 80.9484 16.2366 80.6525 15.7893C80.1459 15.0462 78.9587 15.2532 78.9587 14.5434C78.9587 14.2181 79.1066 14.0074 79.7612 13.8595C80.9188 13.5933 81.7509 13.3567 82.5534 12.9981C82.7605 12.9094 82.938 12.8502 83.1192 12.8502C83.5039 12.8502 83.7738 13.1164 83.7738 13.6524V23.7154C83.7738 24.9908 83.7738 25.6748 84.0697 26.148C84.4839 26.8023 85.7635 26.684 85.7635 27.3642Z" fill="#6D7344"/>
<path d="M92.4158 29.0251C88.6435 29.0251 85.6443 26.3227 85.6443 21.8716C85.6443 17.4206 88.7619 12.8771 93.7212 12.8771C94.9084 12.8771 96.6318 13.1728 97.4047 13.9751C97.8485 14.4187 97.9705 15.2505 97.9705 15.964C97.9705 17.3577 97.6747 17.7755 97.1088 17.7755C96.4246 17.7755 96.2767 17.062 95.8329 16.3226C95.3891 15.5795 94.4683 14.4815 92.8928 14.4815C90.5777 14.4815 88.6177 16.7366 88.6177 20.5075C88.6177 23.7718 90.1302 26.9179 93.5178 26.9179C96.1621 26.9179 97.1717 24.929 97.8522 24.929C98.1776 24.929 98.3884 25.1951 98.3884 25.4946C98.3884 26.2968 96.3396 29.0251 92.4195 29.0251H92.4158Z" fill="#6D7344"/>
<path d="M112.253 25.4946C112.253 26.3264 109.997 29.0251 106.047 29.0251C101.502 29.0251 98.8321 25.4613 98.8321 21.3947C98.8321 17.062 101.92 12.8771 106.521 12.8771C110.796 12.8771 112.579 16.3485 112.579 18.4261C112.579 20.2376 111.687 20.5038 110.234 20.5334H102.186C101.979 20.5334 101.861 20.6221 101.861 20.8291V20.977C101.861 24.0935 103.644 26.8846 106.791 26.8846C109.701 26.8846 110.888 24.8661 111.602 24.8661C111.957 24.8661 112.257 25.0731 112.257 25.4909L112.253 25.4946ZM101.979 18.8734C101.979 19.0213 102.039 19.0509 102.216 19.0509H107.057C108.78 19.0509 109.553 18.696 109.553 17.3281C109.553 15.9603 108.366 14.33 106.258 14.33C103.884 14.33 102.368 16.3485 102.013 18.5444C101.983 18.781 101.983 18.8402 101.983 18.8697L101.979 18.8734Z" fill="#6D7344"/>
<path d="M140.579 26.887H140.224C139.629 26.887 139.274 26.4138 139.274 25.3749C139.274 23.0015 139.363 20.2695 139.363 17.9553C139.363 15.0162 137.403 12.8794 133.601 12.8794C131.907 12.8794 129.503 13.2935 128.701 14.3323C128.346 14.7759 128.198 15.726 128.198 16.4987C128.198 17.2713 128.316 17.9516 129.03 17.9516C129.684 17.9516 129.773 17.4155 130.365 16.5874C131.108 15.5486 132.029 14.3914 133.808 14.3914C135.413 14.3914 136.393 15.4007 136.393 16.824C136.393 18.4285 135.088 19.2861 133.9 19.8222C132.266 20.5948 129.448 21.19 127.728 22.7169C125.505 24.691 126.36 27.1531 120.361 27.1531C119.618 27.1531 118.756 27.1236 118.431 26.8574C117.987 26.5025 117.928 25.8777 117.928 24.4544V12.0476C117.928 9.9108 117.987 9.25645 118.701 8.84239C119.178 8.54664 119.651 8.48749 119.651 8.01059C119.651 7.71484 119.355 7.50781 118.819 7.50781H114.067C113.531 7.50781 113.235 7.71484 113.235 8.01059C113.235 8.48379 113.712 8.54664 114.185 8.84239C114.869 9.25645 114.958 9.9108 114.958 12.0476V23.593C114.958 24.898 114.899 25.9073 114.662 26.4433C114.126 27.63 113.087 27.4822 113.087 28.1365C113.087 28.5506 113.471 28.7021 114.008 28.7021H120.779C123.778 28.7021 124.877 28.9387 125.857 28.9387C127.003 28.9387 127.347 28.0848 127.562 27.0274C128.279 28.2031 129.718 29.0275 131.678 29.0275C133.52 29.0275 135.361 28.2548 136.43 26.6541C136.489 26.5653 136.489 26.5358 136.548 26.5358C136.608 26.5358 136.608 26.6245 136.608 26.6836C136.785 28.436 137.883 29.0275 138.863 29.0275C140.169 29.0275 141.09 27.9295 141.09 27.3639C141.09 27.0681 140.853 26.8907 140.583 26.8907L140.579 26.887ZM136.393 20.8314C136.393 22.6429 136.363 23.9479 135.768 25.1938C135.054 26.6467 133.719 27.301 132.562 27.301C130.986 27.301 130.187 26.2326 130.187 25.0459C130.187 24.2141 130.602 23.2936 131.67 22.5838C133.094 21.6337 135.054 21.1309 136.093 20.3287C136.212 20.2399 136.241 20.2104 136.301 20.2104C136.36 20.2104 136.389 20.2695 136.389 20.3287V20.8314H136.393Z" fill="#6D7344"/>
<path d="M148.95 29.0249C146.069 29.0249 145.03 27.5721 144.346 27.5721C143.484 27.5721 143.662 29.0249 142.804 29.0249C142.39 29.0249 142.149 28.6996 142.149 27.9565V11.3353C142.149 10.3556 142.149 9.97111 141.883 9.49421C141.38 8.66241 140.16 8.86944 140.16 8.18921C140.16 7.89345 140.308 7.68273 140.992 7.53485C142.09 7.29825 142.834 7.06165 143.666 6.73263C143.961 6.61433 144.143 6.55518 144.379 6.55518C144.734 6.55518 144.975 6.7622 144.975 7.29825V15.2836C144.975 15.4314 145.034 15.5202 145.123 15.5202C145.211 15.5202 145.271 15.461 145.419 15.2836C146.606 13.949 148.3 12.8806 150.26 12.8806C153.884 12.8806 156.347 15.9379 156.347 20.1819C156.347 24.426 153.791 29.0286 148.954 29.0286L148.95 29.0249ZM149.22 27.5425C152.338 27.5425 153.407 24.1598 153.407 21.2504C153.407 17.8677 151.835 15.0174 149.102 15.0174C146.014 15.0174 144.975 18.1339 144.975 21.1321C144.975 25.2282 146.728 27.5425 149.22 27.5425Z" fill="#6D7344"/>
<path d="M158.009 23.4446C158.693 23.4446 159.018 24.3652 159.673 25.2857C160.446 26.3541 161.515 27.4817 163.356 27.4817C165.198 27.4817 166.356 26.3245 166.356 24.9899C166.356 21.1008 157.776 22.9714 157.776 17.6886C157.776 14.8087 160.45 12.8789 163.715 12.8789C165.169 12.8789 166.567 13.2338 167.251 13.7403C168.024 14.3059 168.201 15.2523 168.201 15.9954C168.201 16.6793 168.172 17.7181 167.31 17.7181C166.596 17.7181 166.537 17.0934 165.916 16.1728C165.32 15.3115 164.462 14.4205 162.976 14.4205C161.729 14.4205 160.39 15.2523 160.39 16.646C160.39 18.4871 162.587 18.9012 164.754 19.6442C166.892 20.3577 169 21.367 169 24.0657C169 26.7645 166.507 29.0233 162.794 29.0233C160.716 29.0233 158.785 28.3393 158.013 27.5704C157.388 26.9456 157.21 25.6406 157.21 24.7201C157.21 24.0657 157.328 23.4446 158.013 23.4446H158.009Z" fill="#6D7344"/>
<path d="M21.2691 15.2605L15.2668 21.2605C14.9895 21.5378 14.8304 21.9186 14.8304 22.3104V32H18.2661V20.5766C18.2661 19.2975 19.3053 18.2586 20.5849 18.2586H32.0125V14.8242H22.3194C21.9237 14.8242 21.5465 14.9795 21.2691 15.2605Z" fill="#6D7344"/>
<path d="M12.4632 10.8023L20.6623 12.9983C21.0432 13.1018 21.45 13.0464 21.7902 12.8504L30.1852 8.00748L28.4655 5.03148L18.569 10.7432C17.4596 11.3828 16.0431 11.002 15.4034 9.8966L9.68957 0L6.71248 1.71906L11.5572 10.111C11.7532 10.4511 12.0786 10.7025 12.4595 10.8023H12.4632Z" fill="#6D7344"/>
<path d="M13.003 20.6528L10.8063 12.4568C10.7027 12.076 10.4549 11.7507 10.1147 11.5548L1.71968 6.70813L0 9.68414L9.8965 15.3958C11.006 16.0354 11.3869 17.455 10.7434 18.5604L5.02961 28.4533L8.0067 30.1724L12.8514 21.7804C13.0474 21.4403 13.1029 21.0336 12.9993 20.6528H13.003Z" fill="#6D7344"/>
</svg>
