<svg width="316" height="60" viewBox="0 0 316 60" fill="none" xmlns="http://www.w3.org/2000/svg">
<path d="M101.514 21.5858C101.514 23.0345 101.349 24.7605 99.9586 24.7605C98.7346 24.7605 98.3474 23.4227 97.4069 22.0363C96.017 19.9776 93.6866 16.3038 89.0812 16.3038C84.4758 16.3038 82.1385 19.4785 82.1385 22.5354C82.1385 32.6626 103.07 27.8797 103.07 41.6253C103.07 47.3023 98.292 54.4281 88.0232 54.4281C83.0789 54.4281 78.1416 52.813 76.5857 50.0334C75.9218 48.8619 75.6452 47.5865 75.5899 46.3596C75.5346 45.1327 75.424 44.2454 75.424 43.2404C75.424 42.1243 76.0878 41.6253 76.8139 41.6253C78.2591 41.6253 78.4804 43.2958 80.5895 46.02C82.3113 48.245 85.1396 51.3088 89.6413 51.3088C95.3047 51.3088 98.0224 47.4687 98.0224 43.9612C98.0224 32.829 77.0905 38.1178 77.0905 24.8159C77.0905 18.8062 82.3113 13.4064 90.7477 13.4064C94.634 13.4064 98.4096 14.5224 100.021 16.3038C101.134 17.5307 101.521 19.8113 101.521 21.5927L101.514 21.5858Z" fill="#F8F8F8"/>
<path d="M129.549 50.4121C130.047 50.4121 130.496 50.7448 130.496 51.2994C130.496 52.3599 128.775 54.4186 126.334 54.4186C124.501 54.4186 122.447 53.3026 122.115 50.0239C122.115 49.913 122.115 49.7467 122.005 49.7467C121.894 49.7467 121.894 49.8021 121.783 49.9685C119.785 52.9768 116.341 54.4186 112.898 54.4186C107.511 54.4186 104.233 51.0776 104.233 47.2374C104.233 45.0123 105.346 42.6763 107.677 41.1722C110.567 39.2244 114.004 38.6144 117.06 37.1657C119.28 36.1606 121.728 34.5524 121.728 31.5441C121.728 28.8754 119.896 26.983 116.895 26.983C113.561 26.983 111.84 29.1526 110.457 31.1004C109.343 32.6601 109.177 33.6582 107.96 33.6582C106.626 33.6582 106.404 32.3759 106.404 30.9341C106.404 29.4923 106.681 27.7039 107.352 26.8721C108.852 24.9243 113.347 24.1479 116.514 24.1479C123.623 24.1479 127.288 28.1545 127.288 33.6652C127.288 38.0044 127.122 43.1269 127.122 47.5771C127.122 49.5249 127.786 50.4121 128.899 50.4121H129.563H129.549ZM121.721 38.1153C121.721 38.0044 121.666 37.8935 121.555 37.8935C121.445 37.8935 121.389 37.9489 121.168 38.1153C119.225 39.6195 115.56 40.5622 112.898 42.3436C110.899 43.6814 110.125 45.4074 110.125 46.9601C110.125 49.1852 111.625 51.1885 114.564 51.1885C116.729 51.1885 119.232 49.9616 120.559 47.2374C121.673 44.9014 121.728 42.4545 121.728 39.058V38.1153H121.721Z" fill="#F8F8F8"/>
<path d="M160.362 51.3079C160.362 51.9734 159.975 52.3685 158.862 52.5903C156.697 53.0894 155.142 53.5954 153.752 54.1499C153.198 54.3717 152.867 54.4272 152.583 54.4272C151.809 54.4272 151.359 53.9836 151.359 52.923V49.471C151.359 49.3601 151.304 49.3047 151.193 49.3047C151.082 49.3047 151.027 49.4156 150.916 49.5819C149.084 52.417 145.806 54.4272 141.92 54.4272C139.147 54.4272 136.699 53.4221 134.977 51.3079C133.421 49.4156 132.923 46.8023 132.923 43.4613V34.1104C132.923 31.719 132.923 30.4366 132.37 29.6048C131.485 28.2115 129.203 28.5997 129.203 27.1579C129.203 26.6034 129.59 26.2152 130.704 25.9865C132.923 25.4874 134.203 25.0992 135.703 24.4823C136.257 24.2605 136.533 24.1496 136.983 24.1496C137.702 24.1496 138.207 24.5932 138.207 25.5983V43.3503C138.207 47.1905 139.984 50.1989 143.981 50.1989C145.592 50.1989 147.314 49.6443 148.641 48.3065C150.695 46.2478 151.359 43.1285 151.359 34.6164C151.359 31.9477 151.359 30.4435 150.806 29.6048C149.858 28.2115 147.639 28.5997 147.639 27.2688C147.639 26.6588 147.915 26.2637 149.139 25.9865C151.304 25.4874 152.86 25.0438 154.36 24.3714C154.747 24.205 155.079 24.0941 155.418 24.0941C156.137 24.0941 156.642 24.5932 156.642 25.5983V44.4663C156.642 46.8578 156.642 48.1401 157.195 49.0274C157.97 50.2543 160.362 50.0325 160.362 51.3079Z" fill="#F8F8F8"/>
<path d="M172.801 54.422C165.748 54.422 160.14 49.355 160.14 41.0092C160.14 32.6635 165.969 24.1444 175.242 24.1444C177.462 24.1444 180.684 24.6989 182.129 26.2031C182.959 27.0349 183.187 28.5946 183.187 29.9324C183.187 32.5456 182.634 33.3289 181.576 33.3289C180.297 33.3289 180.02 31.9911 179.191 30.6047C178.361 29.2115 176.639 27.1528 173.693 27.1528C169.364 27.1528 165.699 31.3811 165.699 38.4514C165.699 44.5721 168.528 50.471 174.862 50.471C179.806 50.471 181.694 46.7417 182.966 46.7417C183.575 46.7417 183.969 47.2408 183.969 47.8023C183.969 49.3064 180.138 54.422 172.808 54.422H172.801Z" fill="#F8F8F8"/>
<path d="M209.893 47.8023C209.893 49.3619 205.675 54.422 198.29 54.422C189.791 54.422 184.799 47.7399 184.799 40.115C184.799 31.9911 190.573 24.1444 199.175 24.1444C207.169 24.1444 210.502 30.6533 210.502 34.5489C210.502 37.9454 208.835 38.4445 206.118 38.4999H191.07C190.683 38.4999 190.462 38.6663 190.462 39.0545V39.3317C190.462 45.1751 193.795 50.4086 199.68 50.4086C205.122 50.4086 207.342 46.6239 208.676 46.6239C209.34 46.6239 209.9 47.012 209.9 47.7953L209.893 47.8023ZM190.683 35.3876C190.683 35.6649 190.794 35.7203 191.126 35.7203H200.178C203.4 35.7203 204.845 35.0549 204.845 32.4902C204.845 29.9254 202.626 26.8686 198.684 26.8686C194.245 26.8686 191.409 30.6533 190.745 34.7707C190.69 35.2143 190.69 35.3252 190.69 35.3807L190.683 35.3876Z" fill="#F8F8F8"/>
<path d="M262.859 50.4129H262.195C261.081 50.4129 260.418 49.5257 260.418 47.5779C260.418 43.1277 260.584 38.0052 260.584 33.666C260.584 28.1553 256.919 24.1488 249.81 24.1488C246.643 24.1488 242.148 24.9251 240.647 26.8729C239.984 27.7047 239.707 29.4862 239.707 30.9349C239.707 32.3836 239.928 33.659 241.263 33.659C242.487 33.659 242.653 32.6539 243.759 31.1012C245.149 29.1534 246.871 26.9838 250.197 26.9838C253.198 26.9838 255.031 28.8762 255.031 31.5449C255.031 34.5532 252.59 36.1614 250.37 37.1665C247.314 38.6152 242.044 39.7312 238.829 42.594C234.673 46.2955 236.27 50.912 225.054 50.912C223.664 50.912 222.053 50.8566 221.444 50.3575C220.615 49.692 220.504 48.5206 220.504 45.8519V22.5891C220.504 18.5826 220.615 17.3557 221.949 16.5794C222.841 16.0248 223.726 15.9139 223.726 15.0197C223.726 14.4652 223.173 14.077 222.17 14.077H213.285C212.282 14.077 211.729 14.4652 211.729 15.0197C211.729 15.907 212.621 16.0248 213.506 16.5794C214.785 17.3557 214.951 18.5826 214.951 22.5891V44.2368C214.951 46.6837 214.84 48.576 214.398 49.5811C213.395 51.8062 211.452 51.5289 211.452 52.7558C211.452 53.5322 212.171 53.8164 213.174 53.8164H225.835C231.444 53.8164 233.497 54.26 235.33 54.26C237.473 54.26 238.117 52.6588 238.518 50.6763C239.859 52.8806 242.549 54.4264 246.214 54.4264C249.658 54.4264 253.101 52.9776 255.1 49.9762C255.211 49.8099 255.211 49.7544 255.321 49.7544C255.432 49.7544 255.432 49.9208 255.432 50.0317C255.764 53.3173 257.818 54.4264 259.65 54.4264C262.091 54.4264 263.813 52.3677 263.813 51.3071C263.813 50.7526 263.37 50.4199 262.866 50.4199L262.859 50.4129ZM255.031 39.0588C255.031 42.4554 254.975 44.9022 253.862 47.2382C252.528 49.9624 250.031 51.1893 247.867 51.1893C244.921 51.1893 243.427 49.186 243.427 46.9609C243.427 45.4013 244.202 43.6753 246.2 42.3444C248.863 40.563 252.528 39.6203 254.471 38.1161C254.692 37.9498 254.747 37.8943 254.858 37.8943C254.969 37.8943 255.024 38.0052 255.024 38.1161V39.0588H255.031Z" fill="#F8F8F8"/>
<path d="M278.511 54.4218C273.124 54.4218 271.181 51.6977 269.902 51.6977C268.29 51.6977 268.622 54.4218 267.018 54.4218C266.244 54.4218 265.794 53.8118 265.794 52.4186V21.2537C265.794 19.4168 265.794 18.6959 265.296 17.8017C264.356 16.2421 262.074 16.6303 262.074 15.3548C262.074 14.8003 262.35 14.4052 263.63 14.1279C265.683 13.6843 267.073 13.2407 268.629 12.6237C269.182 12.4019 269.521 12.291 269.964 12.291C270.628 12.291 271.077 12.6792 271.077 13.6843V28.6567C271.077 28.934 271.188 29.1004 271.354 29.1004C271.52 29.1004 271.63 28.9895 271.907 28.6567C274.127 26.1544 277.294 24.1511 280.959 24.1511C287.736 24.1511 292.341 29.8836 292.341 37.8412C292.341 45.7988 287.563 54.4287 278.518 54.4287L278.511 54.4218ZM279.016 51.6422C284.845 51.6422 286.843 45.2997 286.843 39.8445C286.843 33.502 283.905 28.1576 278.794 28.1576C273.02 28.1576 271.077 34.0011 271.077 39.6227C271.077 47.303 274.355 51.6422 279.016 51.6422Z" fill="#F8F8F8"/>
<path d="M295.448 43.9587C296.728 43.9587 297.336 45.6847 298.56 47.4107C300.005 49.4139 302.004 51.5281 305.448 51.5281C308.891 51.5281 311.056 49.3585 311.056 46.8562C311.056 39.564 295.013 43.0715 295.013 33.1661C295.013 27.7663 300.012 24.1479 306.118 24.1479C308.836 24.1479 311.45 24.8134 312.729 25.763C314.174 26.8236 314.506 28.5981 314.506 29.9914C314.506 31.2737 314.451 33.2215 312.84 33.2215C311.505 33.2215 311.395 32.0501 310.233 30.3241C309.12 28.709 307.515 27.0385 304.735 27.0385C302.405 27.0385 299.902 28.5981 299.902 31.2113C299.902 34.6633 304.009 35.4397 308.061 36.8329C312.058 38.1708 316 40.0631 316 45.1232C316 50.1834 311.339 54.4186 304.397 54.4186C300.51 54.4186 296.901 53.1363 295.455 51.6945C294.287 50.523 293.955 48.0761 293.955 46.3501C293.955 45.1232 294.176 43.9587 295.455 43.9587H295.448Z" fill="#F8F8F8"/>
<path d="M39.7694 28.6133L28.5463 39.8635C28.0276 40.3834 27.7303 41.0973 27.7303 41.8321V60H34.1544V38.5811C34.1544 36.1828 36.0975 34.2349 38.4901 34.2349H59.8576V27.7954H41.7333C40.9934 27.7954 40.288 28.0865 39.7694 28.6133Z" fill="#F8F8F8"/>
<path d="M23.3041 20.2544L38.6348 24.3718C39.347 24.5659 40.1077 24.4619 40.7438 24.0945L56.441 15.014L53.2255 9.43403L34.7208 20.1435C32.6463 21.3427 29.9978 20.6287 28.8015 18.5561L18.1178 0L12.5511 3.22323L21.6099 18.9582C21.9764 19.5959 22.5849 20.0672 23.2971 20.2544H23.3041Z" fill="#F8F8F8"/>
<path d="M24.3133 38.7242L20.2058 23.3567C20.0122 22.6427 19.5489 22.0327 18.9127 21.6653L3.2155 12.5779L0 18.1579L18.5047 28.8673C20.5792 30.0665 21.2915 32.7283 20.0882 34.8009L9.40448 53.3501L14.9711 56.5733L24.0298 40.8384C24.3963 40.2007 24.5001 39.4382 24.3064 38.7242H24.3133Z" fill="#F8F8F8"/>
</svg>
