<svg width="369" height="109" fill="none" xmlns="http://www.w3.org/2000/svg"><path d="M139.151 36.117h8.973v9.846h-8.973v16.515c0 4.288 3.097 4.367 8.973 4.05v9.29c-14.055 1.588-19.216-2.461-19.216-13.34V45.962H122v-9.846h6.908v-8.02L139.151 25v11.117Z" fill="#002942"/><path fill-rule="evenodd" clip-rule="evenodd" d="M192.298 55.967c0 1.35-.159 2.7-.397 4.209h-29.935c1.35 5.002 5.082 7.464 11.196 7.464 3.891 0 6.908-1.35 8.893-3.97l8.258 4.764c-3.891 5.637-9.687 8.496-17.31 8.496-6.591 0-11.831-1.985-15.801-5.956-3.97-3.97-5.956-8.972-5.956-15.007 0-5.955 1.986-10.957 5.876-14.928 3.891-4.05 8.973-6.034 15.087-6.034 5.796 0 10.64 1.985 14.372 6.034 3.811 4.05 5.717 8.973 5.717 14.928Zm-20.089-11.751c-5.479 0-9.211 2.938-10.402 8.02h20.248c-1.191-5.4-5.161-8.02-9.846-8.02Z" fill="#002942"/><path d="M206.553 47.392c0-1.985 1.985-3.256 4.605-3.256 2.938 0 5.082 1.35 6.352 4.05l8.735-4.764c-3.097-5.4-8.655-8.417-15.087-8.417-4.288 0-7.861 1.111-10.799 3.414-2.858 2.224-4.288 5.32-4.288 9.21 0 8.259 7.385 10.72 13.261 12.229 4.049 1.032 7.226 2.223 7.226 4.367 0 2.303-1.827 3.415-5.479 3.415-4.05 0-6.591-1.747-7.782-5.162l-8.893 5.003c2.938 6.273 8.496 9.449 16.675 9.449 4.526 0 8.337-1.112 11.354-3.256 3.097-2.223 4.606-5.4 4.606-9.449.079-8.496-7.464-11.275-13.261-12.466-4.049-1.032-7.225-2.223-7.225-4.367ZM245.406 36.117h8.972v9.846h-8.972v16.515c0 4.288 3.096 4.367 8.972 4.05v9.29c-14.054 1.588-19.215-2.461-19.215-13.34V45.962h-6.908v-9.846h6.908v-8.02L245.406 25v11.117ZM305.337 35.005c-5.241 0-9.211 1.905-11.832 5.717-2.302-3.812-5.955-5.717-10.798-5.717-5.003 0-8.655 1.747-11.037 5.32v-4.209h-10.243v39.702h10.243V53.506c0-5.797 2.938-8.973 7.463-8.973 4.209 0 6.67 2.78 6.67 7.544v23.741h10.243V53.506c0-5.797 2.7-8.973 7.385-8.973 4.208 0 6.67 2.78 6.67 7.544v23.741h10.243V51.362c0-9.925-5.876-16.357-15.007-16.357Z" fill="#002942"/><path fill-rule="evenodd" clip-rule="evenodd" d="M368.189 55.967c0 5.876-2.064 10.879-6.114 14.928-4.049 4.05-9.052 6.035-14.928 6.035-5.875 0-10.878-1.985-14.927-6.035-4.05-4.05-6.035-9.052-6.035-14.928 0-5.876 1.985-10.799 6.035-14.848 4.049-4.05 9.052-6.114 14.927-6.114 5.876 0 10.879 2.064 14.928 6.114 4.05 4.05 6.114 8.972 6.114 14.848Zm-31.761 0c0 3.176 1.032 5.797 3.017 7.861 2.065 2.065 4.606 3.097 7.702 3.097 3.097 0 5.638-1.032 7.702-3.097 2.065-2.064 3.097-4.685 3.097-7.86 0-3.177-1.032-5.797-3.097-7.862-2.064-2.064-4.605-3.096-7.702-3.096-3.096 0-5.637 1.032-7.702 3.096-1.985 2.065-3.017 4.685-3.017 7.861Z" fill="#002942"/><path fill-rule="evenodd" clip-rule="evenodd" d="m61.765 0 32.582 18.414v37.8L61.766 75.302l-32.837-19.08V18.404L61.765 0ZM36.491 22.835V51.87L61.75 66.547 86.785 51.88V22.827L61.75 8.676 36.49 22.837Z" fill="#005CB1"/><path fill-rule="evenodd" clip-rule="evenodd" d="m33.177 16.055 33.266 19.156v37.356L33.35 91.67 0 72.576V34.652l33.177-18.597ZM7.562 39.083v29.109l25.773 14.755L58.88 68.201V39.582l-25.753-14.83-25.565 14.33Z" fill="#32CDFF"/><g opacity=".5" fill="#005EE2"><path d="m66.033 72.804-4.3 2.482-7.537-4.38L58.88 68.2v-3.32l2.869 1.668 4.693-2.75v8.765l-.41.24ZM40.78 20.433l-7.603-4.378-4.248 2.382v8.67l4.198-2.354 3.364 1.937v-3.853l4.289-2.404Z"/></g><path fill-rule="evenodd" clip-rule="evenodd" d="m61.765 32.549 32.582 18.532v38l-32.581 19.211-32.837-19.203V51.072l32.836-18.523Zm-25.274 22.94V84.75L61.75 99.523 86.785 84.76V55.48L61.75 41.24 36.49 55.49Z" fill="#3DD279"/><g opacity=".5" fill="#08AD98"><path d="m66.443 35.21-4.678-2.661-7.621 4.3 4.737 2.727v3.283l2.869-1.619 4.693 2.67v-8.7ZM40.88 87.318l-7.529 4.346-.969-.555-3.453-2.02v-8.671l4.407 2.523 3.155-1.821v3.631l4.389 2.567Z"/></g><g opacity=".5" fill="#006387"><path d="M28.929 51.073v5.146l7.562 4.394V55.49l3.164-1.785-3.164-1.838v-5.06l-7.562 4.266ZM86.785 46.781v5.095l-3.122 1.83 3.122 1.775v5.16l7.562-4.431v-5.128l-7.562-4.301Z"/></g></svg>