<svg width="166" height="24" viewBox="0 0 166 24" fill="none" xmlns="http://www.w3.org/2000/svg">
<g clip-path="url(#clip0)">
<path d="M13.8046 10.314L6.57447 19.2711H14.6226C14.6226 20.3142 14.2125 21.3145 13.4824 22.0522C12.7524 22.7898 11.7622 23.2043 10.7296 23.2046H0.652719V19.3037L8.66859 10.1828H3.69548C2.72345 10.1826 1.79132 9.79239 1.10408 9.09799C0.416837 8.4036 0.0307617 7.46189 0.0307617 6.47998H13.8046V10.314Z" fill="black"/>
<path d="M33.2385 16.1314H22.3105C22.7246 18.4451 24.2624 19.602 26.9239 19.602C27.7268 19.6025 28.5257 19.4856 29.2955 19.2548C30.1354 18.9987 30.96 18.6942 31.7655 18.3428V22.5737C29.9768 23.3228 27.9704 23.6974 25.7461 23.6974C24.0661 23.6974 22.5936 23.3503 21.3288 22.656C20.0761 21.9753 19.0514 20.9345 18.3845 19.6654C17.6864 18.3648 17.3374 16.8334 17.3374 15.0711C17.3374 12.1625 18.0518 9.90968 19.4807 8.31254C20.9096 6.71539 22.9435 5.91539 25.5824 5.91254C30.7515 5.91654 33.3035 9.32282 33.2385 16.1314ZM22.2783 12.9917H28.396C28.2433 11.802 27.9322 10.9537 27.4627 10.4468C26.9932 9.93996 26.3011 9.68625 25.3864 9.68568C23.6413 9.68568 22.6052 10.7877 22.2783 12.9917Z" fill="black"/>
<path d="M51.8217 8.26542C53.1086 9.7637 53.7521 11.9351 53.7521 14.7797C53.73 20.7271 50.829 23.7006 45.0489 23.7C39.9884 23.7 37.4584 22.2457 37.459 19.3371V0.299988H42.2352V7.0757C42.862 6.70871 43.5408 6.44102 44.2479 6.28199C44.9066 6.11808 45.5814 6.02952 46.2597 6.01799C48.6814 6.01799 50.5354 6.76713 51.8217 8.26542ZM48.874 15.0737C48.874 11.6588 47.6089 9.95113 45.0786 9.95056C44.5849 9.95568 44.0934 10.0169 43.6132 10.1331C43.1334 10.2384 42.6706 10.4115 42.2386 10.6474V18.0506C42.2386 19.0866 43.1547 19.6046 44.987 19.6046C47.5783 19.6028 48.874 18.0926 48.874 15.0737Z" fill="black"/>
<path d="M57.9404 8.22856C58.2668 7.94284 58.8393 7.62341 59.6578 7.27027C60.5484 6.89361 61.4674 6.58978 62.4061 6.3617C63.3638 6.11684 64.3473 5.9902 65.3352 5.98456C67.1453 5.98456 68.3994 6.25999 69.0975 6.81084V10.4108C68.2247 10.2131 66.9706 10.1143 65.3352 10.1143C64.492 10.1037 63.6493 10.161 62.8151 10.2857V23.2046H57.9404V8.22856Z" fill="black"/>
<path d="M74.8387 21.9814C73.4528 20.8386 72.7602 19.1197 72.7607 16.8248V6.47998H77.6388V16.4288C77.6388 17.4866 77.8733 18.2743 78.3422 18.792C78.8112 19.3097 79.5581 19.5686 80.5831 19.5686C81.6081 19.5686 82.3551 19.3097 82.8241 18.792C83.293 18.2743 83.5275 17.4866 83.5275 16.4288V6.47998H88.1094V16.8248C88.1094 19.1391 87.4496 20.8634 86.1298 21.9977C84.8101 23.132 82.9494 23.6994 80.5475 23.7C78.127 23.7 76.2241 23.1271 74.8387 21.9814Z" fill="black"/>
<path d="M97.1355 6.61286C98.88 6.21572 100.44 6.01744 101.814 6.01801C104.148 6.01801 105.903 6.48058 107.082 7.40572C108.26 8.33086 108.849 9.85115 108.848 11.9666V23.2046H103.974V12.9583C103.974 11.0417 102.905 10.0834 100.767 10.0834C100.272 10.0851 99.7785 10.1403 99.295 10.248C98.8866 10.3264 98.4904 10.4598 98.1172 10.6449V23.2046H93.2417V7.90201C94.093 7.43915 95.391 7.00944 97.1355 6.61286Z" fill="black"/>
<path d="M117.878 6.61286C119.623 6.21572 121.182 6.01744 122.557 6.01801C124.89 6.01801 126.646 6.48058 127.824 7.40572C129.003 8.33086 129.592 9.85115 129.591 11.9666V23.2046H124.716V12.9583C124.716 11.0417 123.648 10.0834 121.51 10.0834C121.015 10.0851 120.521 10.1403 120.038 10.248C119.629 10.3264 119.233 10.4598 118.86 10.6449V23.2046H113.984V7.90201C114.836 7.43915 116.134 7.00944 117.878 6.61286Z" fill="black"/>
<path d="M153.933 8.22857C154.26 7.94285 154.833 7.62343 155.651 7.27028C156.541 6.8935 157.46 6.58966 158.399 6.36171C159.356 6.11569 160.34 5.9879 161.327 5.98114C163.138 5.98114 164.392 6.25657 165.09 6.80743V10.4074C164.217 10.212 162.963 10.1143 161.327 10.1143C160.485 10.1018 159.642 10.1571 158.808 10.2797V23.2046H153.933V8.22857Z" fill="black"/>
<path d="M138.164 7.14087H149.091C149.091 8.1227 148.705 9.06432 148.017 9.75858C147.33 10.4528 146.398 10.8429 145.426 10.8429H134.499C134.499 10.3567 134.594 9.87524 134.778 9.42604C134.962 8.97684 135.232 8.56869 135.572 8.22491C135.912 7.88112 136.317 7.60844 136.761 7.42244C137.206 7.23644 137.682 7.14076 138.164 7.14087Z" fill="#0FC57A"/>
<path d="M138.164 13.3217H149.091C149.091 14.3035 148.705 15.2452 148.017 15.9394C147.33 16.6337 146.398 17.0237 145.426 17.0237H134.499C134.499 16.5375 134.594 16.0561 134.778 15.6069C134.962 15.1577 135.232 14.7495 135.572 14.4058C135.912 14.062 136.317 13.7893 136.761 13.6033C137.206 13.4173 137.682 13.3216 138.164 13.3217Z" fill="#0FC57A"/>
<path d="M138.164 19.5017H149.091C149.091 20.4836 148.705 21.4253 148.018 22.1197C147.33 22.8141 146.398 23.2043 145.426 23.2046H134.499C134.499 22.7183 134.594 22.2369 134.778 21.7876C134.962 21.3384 135.232 20.9302 135.572 20.5863C135.912 20.2424 136.316 19.9697 136.761 19.7836C137.206 19.5975 137.682 19.5017 138.164 19.5017Z" fill="#0FC57A"/>
</g>
<defs>
<clipPath id="clip0">
<rect width="165.12" height="24" fill="white"/>
</clipPath>
</defs>
</svg>
