<svg width="71" height="70" viewBox="0 0 71 70" fill="none" xmlns="http://www.w3.org/2000/svg">
<path fill-rule="evenodd" clip-rule="evenodd" d="M45.8686 29.0233C46.9194 30.7712 47.5232 32.8153 47.5232 35C47.5232 37.3209 46.8418 39.4833 45.6668 41.3003L57.848 62.2814C65.8681 55.8663 71 46.0292 71 35C71 24.097 65.9848 14.3589 58.1221 7.94012L45.8686 29.0233ZM47.5788 67.9892L35.1909 46.652C31.2205 46.4554 27.7702 44.2992 25.7988 41.1363L1.11489 41.1686C4.04654 57.5574 18.4527 70 35.7849 70C39.9216 70 43.8916 69.2912 47.5788 67.9892ZM25.4134 29.5303C27.3658 25.8801 31.2119 23.3836 35.6503 23.3341L47.9631 2.14907C44.168 0.759027 40.0657 0 35.7849 0C18.1959 0 3.62036 12.8139 0.992188 29.5623L25.4134 29.5303Z" fill="#3DDC91"/>
</svg>
