<svg width="70" height="70" viewBox="0 0 70 70" fill="none" xmlns="http://www.w3.org/2000/svg">
<path fill-rule="evenodd" clip-rule="evenodd" d="M30.25 17.5C25.4167 17.5 21.5 21.4167 21.5 26.25L4 26.25C4 11.7517 15.7517 -1.26748e-06 30.25 0L30.25 17.5Z" fill="#3DDC91"/>
<path fill-rule="evenodd" clip-rule="evenodd" d="M39 26.25C39 21.4167 35.0833 17.5 30.25 17.5L30.25 0C44.7483 -6.33742e-07 56.5 11.7517 56.5 26.25L39 26.25Z" fill="#3DDC91"/>
<path fill-rule="evenodd" clip-rule="evenodd" d="M21.5 26.25C21.5 31.0833 25.4167 35 30.25 35L30.25 52.5C15.7517 52.5 4 40.7483 4 26.25L21.5 26.25Z" fill="#3DDC91"/>
<path d="M47.75 35H65.25L47.75 70H30.25L47.75 35Z" fill="#3DDC91"/>
</svg>
