<svg width="70" height="70" viewBox="0 0 70 70" fill="none" xmlns="http://www.w3.org/2000/svg">
<path d="M35 25.8125H17.5L26.25 43.3125H43.75L35 25.8125Z" fill="#3DDC91"/>
<path d="M1.90735e-06 52.5L17.5 52.5L17.5 26.25L4.2022e-06 26.25L1.90735e-06 52.5Z" fill="#3DDC91"/>
<path d="M0.000146866 34.7812L17.5 34.7812L17.5 17.2814L0.000148396 17.2814L0.000146866 34.7812Z" fill="#3DDC91"/>
<path d="M34.9999 69.9999L52.4998 69.9999L52.4998 52.5L34.9999 52.5L34.9999 69.9999Z" fill="#3DDC91"/>
<path d="M52.5 52.5L70 52.5L70 42L52.5 42L52.5 52.5Z" fill="#3DDC91"/>
<path d="M17.5 70L35.4375 70L35.4375 52.5L17.5 52.5L17.5 70Z" fill="#3DDC91"/>
<path d="M17.5001 17.4999L35 17.4999L35 3.00407e-05L17.5001 2.85108e-05L17.5001 17.4999Z" fill="#3DDC91"/>
<path fill-rule="evenodd" clip-rule="evenodd" d="M0.000149012 17.4999L17.5 17.4999L17.5 2.69413e-05C7.83321 2.73638e-05 0.000148589 7.83309 0.000149012 17.4999Z" fill="#3DDC91"/>
<path fill-rule="evenodd" clip-rule="evenodd" d="M17.4998 70L17.4998 52.5001L-9.5129e-05 52.5001C-9.42839e-05 62.1669 7.83297 70 17.4998 70Z" fill="#3DDC91"/>
<path fill-rule="evenodd" clip-rule="evenodd" d="M69.9999 52.5L52.5 52.5L52.5 69.9999C62.1668 69.9999 69.9999 62.1668 69.9999 52.5Z" fill="#3DDC91"/>
<path d="M52.5 0H70L52.5 35H35L52.5 0Z" fill="#3DDC91"/>
<path d="M48.125 8.3125H65.625L48.125 43.3125H30.625L48.125 8.3125Z" fill="#3DDC91"/>
</svg>
