<svg width="70" height="70" viewBox="0 0 70 70" fill="none" xmlns="http://www.w3.org/2000/svg">
<path fill-rule="evenodd" clip-rule="evenodd" d="M44.3747 4.53911C42.2155 1.77914 38.8194 0 35 0C31.174 0 27.7728 1.7853 25.6141 4.55343L4.55342 25.6141C1.7853 27.7728 0 31.174 0 35C0 37.6834 0.878219 40.1579 2.35779 42.1413L2.23667 42.2624L25.7749 65.8007L25.8438 65.7318C28.0099 68.3367 31.307 70 35 70C38.2339 70 41.1643 68.7245 43.2974 66.6582L43.3325 66.6933L66.1099 43.9158L66.0637 43.8696C68.4772 41.7048 70 38.5336 70 35C70 31.1806 68.2208 27.7845 65.4609 25.6252L59.9452 20.1096L43.75 52.5H39.375H26.25H21.875L13.125 35H30.625L32.8125 39.375L43.75 17.5H57.3356L44.3747 4.53911Z" fill="#3DDC91"/>
</svg>
