<svg width="20" height="25" viewBox="0 0 20 25" fill="none" xmlns="http://www.w3.org/2000/svg">
<path d="M10.2784 10.1353H14L8.33074 18L10.2119 12.3125H7L12.1339 5L10.2784 10.1353Z" fill="#6D7584"/>
<path fill-rule="evenodd" clip-rule="evenodd" d="M19.3662 1.43803C19.1613 1.48234 18.9558 1.52162 18.75 1.55587C15.9057 2.02918 12.9831 1.54424 10.3902 0.149255L10.2369 0.0667606C10.089 -0.0128135 9.91101 -0.0128134 9.76311 0.0667609L9.60977 0.149255C7.01688 1.54424 4.09429 2.02918 1.25 1.55587C1.04415 1.52162 0.838712 1.48234 0.633838 1.43803C0.312305 1.36849 0 1.60763 0 1.9366V8.00938C0 13.0896 2.22291 17.8734 6 20.9215L9.68599 23.8961C9.86922 24.044 10.1308 24.044 10.314 23.8961L14 20.9215C17.7771 17.8734 20 13.0896 20 8.00938V1.9366C20 1.60763 19.6877 1.36849 19.3662 1.43803ZM18.5 3.10931C15.5999 3.48936 12.6507 2.98266 10 1.63769C7.34932 2.98266 4.4001 3.48936 1.5 3.10931V8.00938C1.5 12.6606 3.5364 17.0058 6.94202 19.7542L10 22.222L13.058 19.7542C16.4636 17.0058 18.5 12.6606 18.5 8.00938V3.10931Z" fill="#6D7584"/>
</svg>
