<svg width="24" height="22" viewBox="0 0 24 22" fill="none" xmlns="http://www.w3.org/2000/svg">
<path d="M14.5 1.00009C14.9124 1.10318 15.1631 1.52104 15.06 1.93341L10.3763 20.6681C10.2732 21.0805 9.85537 21.3312 9.443 21.2281C9.03064 21.125 8.77992 20.7071 8.88301 20.2948L13.5667 1.56008C13.6698 1.14772 14.0876 0.896999 14.5 1.00009Z" fill="#6D7584"/>
<path d="M18.1966 4.77332C18.5286 4.50779 19.0129 4.5616 19.2784 4.89351L23.7864 10.5285C24.0712 10.8845 24.0712 11.3904 23.7864 11.7465L19.2784 17.3814C19.0129 17.7133 18.5286 17.7671 18.1966 17.5016C17.8647 17.2361 17.8109 16.7517 18.0765 16.4198L22.3023 11.1375L18.0765 5.85509C17.8109 5.52317 17.8647 5.03885 18.1966 4.77332Z" fill="#6D7584"/>
<path d="M5.92355 5.85509C6.18908 5.52317 6.13526 5.03885 5.80335 4.77332C5.47144 4.50779 4.98711 4.5616 4.72158 4.89351L0.213624 10.5285C-0.0712087 10.8845 -0.0712073 11.3904 0.213624 11.7465L4.72158 17.3814C4.98711 17.7133 5.47144 17.7671 5.80335 17.5016C6.13526 17.2361 6.18908 16.7517 5.92355 16.4198L1.69765 11.1375L5.92355 5.85509Z" fill="#6D7584"/>
</svg>
