<svg width="46" height="46" viewBox="0 0 46 46" fill="none" xmlns="http://www.w3.org/2000/svg">
<g clip-path="url(#clip0_8412_8379)">
<path d="M20.6172 15.8193L9.62322 29.2605H21.2244C21.2244 32.5198 18.5748 35.164 15.3088 35.164H0.625601V29.3064L12.8064 15.6173H5.56601C2.4932 15.6173 0 13.1292 0 10.0627H20.6172V15.8193Z" fill="#0FC57A"/>
<path d="M30.2315 10.0798H45.9911C45.9911 13.4251 43.4979 16.1394 40.4251 16.1394H24.6562C24.6562 12.7941 27.1495 10.0798 30.2315 10.0798Z" fill="#0FC57A"/>
<path fill-rule="evenodd" clip-rule="evenodd" d="M30.2315 19.5823H45.9911C45.9911 22.9276 43.4979 25.6419 40.4251 25.6419H24.6562C24.6562 22.2966 27.1495 19.5823 30.2315 19.5823Z" fill="#0FC57A"/>
<path fill-rule="evenodd" clip-rule="evenodd" d="M30.2339 29.1306H46.0003C46.0003 32.4758 43.506 35.1901 40.4319 35.1901H24.6562C24.6562 31.8449 27.1505 29.1306 30.2339 29.1306Z" fill="#0FC57A"/>
</g>
<defs>
<clipPath id="clip0_8412_8379">
<rect width="46" height="46" fill="white" transform="translate(0 0.000236511)"/>
</clipPath>
</defs>
</svg>
