<svg width="24" height="24" viewBox="0 0 24 24" fill="none" xmlns="http://www.w3.org/2000/svg">
<path d="M10.8803 1.87624e-07C10.9938 -0.000173654 11.0668 0.120491 11.0135 0.220385L7.15156 7.4601C7.09678 7.56279 6.95051 7.56649 6.8902 7.46671L5.24754 4.7491C3.32544 6.363 2.07714 8.75577 2.00212 11.4547C1.88505 15.6666 4.66244 19.2913 8.5379 20.4308C9.06759 20.5865 9.37024 21.1405 9.21388 21.6682C9.05753 22.1958 8.50138 22.4972 7.97169 22.3415C3.2481 20.9526 -0.139916 16.5371 0.00288512 11.3996C0.0975451 7.99407 1.7237 4.9909 4.20539 3.02495L2.52179 0.239607C2.46148 0.139831 2.5332 0.0127919 2.64994 0.012613L10.8803 1.87624e-07Z" fill="#6D7584"/>
<path d="M14.5072 1.731C14.6488 1.19926 15.1964 0.882577 15.7302 1.02366C20.4906 2.2818 24 6.60224 24 11.7417C24 15.6587 21.9614 19.0998 18.8846 21.0722L20.5094 23.7604C20.5697 23.8602 20.498 23.9872 20.3813 23.9874L12.1509 24C12.0374 24.0002 11.9644 23.8795 12.0177 23.7796L15.8797 16.5399C15.9344 16.4372 16.0807 16.4335 16.141 16.5333L17.8525 19.3648C20.35 17.7412 22 14.9326 22 11.7417C22 7.52818 19.1229 3.98149 15.2173 2.94925C14.6835 2.80816 14.3655 2.26273 14.5072 1.731Z" fill="#6D7584"/>
</svg>
